<svg preserveAspectRatio="none" overflow="visible" style="display: block;" width="31.9932" height="32.0007" viewBox="0 0 31.9932 32.0007" fill="none" xmlns="http://www.w3.org/2000/svg">
<g id="Black">
<path id="Vector" d="M12.9586 31.875C12.8461 31.8 12.6648 31.5625 12.5211 31.3C11.9523 30.25 11.1211 29.6812 9.99609 29.5562C9.34609 29.4812 9.10859 29.3812 8.92734 29.0875C8.81484 28.9 8.80859 28.7437 8.80859 25.5562C8.80859 22.925 8.82734 22.1 8.90234 21.6562C9.40234 18.5812 11.3961 15.8687 14.1648 14.5C15.6023 13.7937 16.0273 13.7437 17.0586 14.15C20.2961 15.4375 22.6398 18.4125 23.1148 21.8375C23.1586 22.1312 23.1836 23.6 23.1836 25.6062C23.1836 28.7437 23.1773 28.9 23.0648 29.0875C22.8836 29.3812 22.6461 29.4812 21.9961 29.5562C20.8648 29.6812 20.0398 30.25 19.4711 31.3C19.0648 32.05 19.2961 32 15.9898 32C13.2773 32 13.1461 31.9937 12.9586 31.875ZM18.9148 25.5562C19.3398 25.4 19.6086 24.9375 19.5273 24.5125C19.4898 24.3125 19.2086 24.0062 17.6023 22.3812C15.5836 20.3562 15.3898 20.2 14.9398 20.2812C14.7523 20.3125 14.5273 20.5062 13.6398 21.3937C12.5086 22.5125 12.3836 22.6937 12.4586 23.0937C12.5398 23.5312 12.9148 23.8125 13.4086 23.8125C13.6961 23.8125 13.7086 23.8062 14.3961 23.125L15.0961 22.4375L16.5586 23.9125C18.2273 25.5937 18.4398 25.7375 18.9148 25.5562Z" fill="#0224E9"/>
<path id="Vector_2" d="M5.59727 16.7812C4.62227 16.5125 3.73477 15.7687 3.31602 14.8687C2.80352 13.775 2.80352 12.7875 3.31602 11.6937C3.74102 10.7875 4.63477 10.0437 5.62227 9.7812C6.06602 9.66245 7.05352 9.66245 7.49727 9.7812C9.04727 10.1937 10.1848 11.675 10.1848 13.2812C10.1848 14.8875 9.04727 16.3687 7.49727 16.7812C7.07227 16.8937 6.01602 16.8937 5.59727 16.7812Z" fill="#0224E9"/>
<path id="Vector_3" d="M24.4723 16.7812C23.4973 16.5125 22.6098 15.7687 22.191 14.8687C21.6785 13.775 21.6785 12.7875 22.191 11.6937C22.616 10.7875 23.5098 10.0437 24.4973 9.7812C24.941 9.66245 25.9285 9.66245 26.3723 9.7812C27.9223 10.1937 29.0598 11.675 29.0598 13.2812C29.0598 14.8875 27.9223 16.3687 26.3723 16.7812C25.9473 16.8937 24.891 16.8937 24.4723 16.7812Z" fill="#0224E9"/>
<path id="Vector_4" d="M15.1534 12.4126C14.0222 12.0563 13.2034 11.1063 13.0409 9.97506C12.8472 8.64381 13.5159 7.40631 14.7284 6.82506C15.1784 6.61256 15.2659 6.59381 15.8722 6.57506C16.4222 6.55631 16.5972 6.57506 16.9284 6.68756C17.9284 7.02506 18.6784 7.83131 18.8972 8.81256C19.0222 9.35631 19.0222 9.70631 18.8972 10.2501C18.6784 11.2251 17.9284 12.0376 16.9472 12.3688C16.5034 12.5188 15.5659 12.5438 15.1534 12.4126Z" fill="#0224E9"/>
<path id="Vector_5" d="M2.24635 9.05C1.34635 8.2875 0.590104 7.10625 0.202604 5.84375C0.0338541 5.28125 0.0338541 5.28125 0.00885409 2.96875C-0.0161459 0.39375 -0.0161459 0.38125 0.402604 0.125C0.596354 0.00625 0.727604 0 4.69635 0H8.7901L8.8276 1.51875C8.88385 3.50625 9.0151 4.15 9.59635 5.33125C9.9901 6.13125 10.3651 6.63125 11.1339 7.3875L11.8214 8.0625L11.5714 8.35625C11.2776 8.70625 10.9276 9.04375 10.6214 9.26875L10.4026 9.43125L10.1839 9.24375C9.09635 8.31875 7.9026 7.86875 6.55885 7.86875C5.2276 7.86875 4.08385 8.29375 2.9901 9.19375L2.7026 9.43125L2.24635 9.05Z" fill="#0224E9"/>
<path id="Vector_6" d="M21.3719 9.26875C21.0531 9.03125 20.7094 8.7 20.4219 8.35625L20.1719 8.0625L20.8594 7.3875C21.8469 6.41875 22.4031 5.5625 22.7844 4.425C23.0469 3.6375 23.1219 3.05625 23.1656 1.4875L23.2031 0H27.2969C31.2656 0 31.3969 0.00625 31.5906 0.125C32.0094 0.38125 32.0094 0.39375 31.9844 2.96875C31.9594 5.28125 31.9594 5.28125 31.7906 5.84375C31.4031 7.10625 30.6469 8.2875 29.7469 9.05L29.2906 9.43125L29.0656 9.24375C27.9406 8.30625 26.7781 7.86875 25.4344 7.86875C24.0906 7.86875 22.9281 8.3125 21.8094 9.24375L21.5844 9.43125L21.3719 9.26875Z" fill="#0224E9"/>
<path id="Vector_7" d="M12.1156 5.8625C11.5781 5.29375 11.1406 4.54375 10.8656 3.71875C10.7344 3.31875 10.7219 3.14375 10.6969 1.64375L10.6719 0H15.9969H21.3219L21.2969 1.64375C21.2719 3.1375 21.2594 3.31875 21.1281 3.71875C20.9219 4.34375 20.4781 5.15625 20.0906 5.61875C19.5531 6.25 19.5594 6.25 19.1219 5.89375C18.2906 5.225 17.4281 4.85 16.4906 4.7625C15.1656 4.63125 13.9281 5.01875 12.8844 5.8875C12.6906 6.05 12.5094 6.1875 12.4781 6.1875C12.4531 6.1875 12.2906 6.0375 12.1156 5.8625Z" fill="#0224E9"/>
</g>
</svg>
