<svg width="60" height="60" viewBox="0 0 60 60" fill="none" xmlns="http://www.w3.org/2000/svg">
<g id="Group 185">
<circle id="Ellipse 9" cx="30" cy="30" r="30" fill="#0224E9" fill-opacity="0.06"/>
<g id="Black">
<path id="Vector" d="M14.4844 18.1662V21.8516H15.4542C16.3335 21.8516 16.4499 21.8257 16.8378 21.4766L17.2646 21.1016L17.3034 18.4119C17.3292 16.9377 17.3163 15.5929 17.2775 15.4507C17.2387 15.2955 17.0447 15.011 16.8637 14.83C16.5534 14.5067 16.424 14.4808 15.5059 14.4808H14.4844V18.1662Z" fill="#0224E9"/>
<path id="Vector_2" d="M18.1016 18.1021V20.4297H19.4593C20.9723 20.4297 21.3473 20.3133 21.9033 19.6538C22.6662 18.7357 22.6145 17.3133 21.774 16.4857C21.2309 15.9297 20.6619 15.7745 19.2395 15.7745H18.1016V18.1021ZM20.5585 17.7142C20.8688 18.0245 20.8688 18.0892 20.6102 18.4642C20.3904 18.7745 19.9248 18.8392 19.6792 18.5935C19.4335 18.3478 19.4981 17.8823 19.8085 17.6624C20.1835 17.4038 20.2481 17.4038 20.5585 17.7142Z" fill="#0224E9"/>
<path id="Vector_3" d="M32.628 16.5614C31.9943 16.7424 31.5547 17.3631 31.5547 18.0485C31.5547 19.1218 32.1624 19.7812 33.1711 19.7812C34.1797 19.7812 34.7875 19.1218 34.7875 18.0485C34.7875 17.3373 34.3349 16.7424 33.6495 16.5485C33.3909 16.4838 33.1452 16.4192 33.1064 16.4321C33.0676 16.4321 32.8607 16.4967 32.628 16.5614ZM33.4685 18.1519C33.4426 18.32 33.3392 18.4235 33.1711 18.4235C32.8737 18.4235 32.7443 17.9838 32.99 17.8416C33.2487 17.6735 33.5073 17.8545 33.4685 18.1519Z" fill="#0224E9"/>
<path id="Vector_4" d="M23.1215 17.3553C23.2379 17.8984 23.2249 18.4545 23.0956 18.9717L22.9922 19.3984H27.0267C30.8284 19.3984 31.0612 19.3855 30.9577 19.1657C30.7896 18.7907 30.7508 17.7303 30.8931 17.3295L31.0224 16.9415H27.0267H23.031L23.1215 17.3553Z" fill="#0224E9"/>
<path id="Vector_5" d="M35.1363 19.5253C35.007 19.7322 34.7355 20.0038 34.5286 20.1331C34.3087 20.2494 34.1406 20.4046 34.1406 20.4693C34.1406 20.521 34.6191 21.077 35.2139 21.6848L36.2872 22.7969L36.5846 22.3184C36.7527 22.0598 37.0501 21.7624 37.257 21.6589C37.4639 21.5426 37.632 21.4132 37.632 21.3615C37.632 21.2581 35.5372 19.1374 35.4208 19.1374C35.3949 19.1374 35.2527 19.3055 35.1363 19.5253Z" fill="#0224E9"/>
<path id="Vector_6" d="M37.6457 22.2901C37.0251 22.6393 36.8311 23.3763 37.1802 24.0488C37.4259 24.5272 37.7363 24.6953 38.344 24.6953C38.9777 24.6953 39.3009 24.5013 39.5208 23.9841C40.0121 22.7944 38.7708 21.6694 37.6457 22.2901Z" fill="#0224E9"/>
<path id="Vector_7" d="M38.6903 25.4326C38.4058 25.4844 38.3929 25.5361 38.4704 25.9628C38.5222 26.2214 38.6515 26.7257 38.7679 27.0878C38.9618 27.6697 39.0265 27.7344 39.3756 27.7344C39.8799 27.7344 39.9317 27.437 39.6342 26.2344C39.4015 25.3033 39.4015 25.3033 38.6903 25.4326Z" fill="#0224E9"/>
<path id="Vector_8" d="M17.5237 25.9393C16.6832 26.379 16.4634 26.8833 16.9806 27.2066C17.1616 27.323 17.3168 27.2842 17.7177 27.0514C18.6358 26.5212 18.8039 26.5988 21.0022 28.4092C22.1013 29.3144 22.9806 30.0902 22.9418 30.1161C22.916 30.1419 21.8039 30.2713 20.472 30.4006C17.8211 30.6463 17.5884 30.7368 17.1746 31.5644C16.9935 31.9135 16.9418 32.3273 16.9418 33.5558C16.9418 34.4092 17.0065 35.198 17.0711 35.3015C17.1487 35.4308 17.4849 35.5084 18.2091 35.5342L19.2436 35.5859L19.2953 34.7325C19.3341 34.0342 19.4117 33.8014 19.7349 33.4006C20.5237 32.4178 21.791 32.1592 22.8384 32.7799C23.6143 33.2325 23.9763 33.879 23.9893 34.8101V35.5601H29.9117H35.8212V34.9135C35.8212 34.0989 36.1704 33.3747 36.804 32.8963C37.6833 32.2239 39.235 32.3661 39.985 33.1937C40.2954 33.5428 40.6057 34.3187 40.6057 34.7842C40.6057 35.0687 40.6704 35.1721 40.8385 35.1721C41.3299 35.1721 42.7394 34.8877 42.8945 34.7583C43.1014 34.5902 43.1273 30.6333 42.9333 30.2583C42.7652 29.948 42.0411 29.7411 41.1618 29.7411C40.7997 29.7411 40.4635 29.6894 40.4247 29.6247C40.3859 29.573 40.735 29.2109 41.1876 28.8488C42.0023 28.1893 42.0282 28.1764 42.4678 28.3316C42.8299 28.4609 42.9592 28.4609 43.1144 28.3316C43.6187 27.9049 43.0109 27.1549 42.1704 27.1549C41.6273 27.1549 41.3428 27.323 40.0497 28.4092L39.0928 29.2109L38.0971 28.1118C37.2824 27.2195 37.0238 27.0255 36.7135 27.0255C36.5066 27.0255 36.3385 27.0514 36.3385 27.0773C36.3385 27.1031 36.5454 27.685 36.7911 28.3833C37.1402 29.3531 37.2178 29.6894 37.1014 29.8187C36.985 29.9738 35.8729 29.9997 30.7781 29.9997H24.597L22.2953 28.0859C21.0151 27.0385 19.8384 26.0816 19.6573 25.9523C19.2565 25.6678 18.0539 25.6549 17.5237 25.9393Z" fill="#0224E9"/>
<path id="Vector_9" d="M27.4184 27.455C27.1727 27.6748 26.6167 28.1791 26.1899 28.5412L25.4141 29.2266H28.2977H31.1684V28.1274V27.0283H29.5262L27.871 27.0412L27.4184 27.455Z" fill="#0224E9"/>
<path id="Vector_10" d="M31.9375 28.1274V29.2266H34.0711C35.2479 29.2266 36.2048 29.1878 36.2048 29.136C36.2048 29.0714 36.0496 28.58 35.8686 28.0369L35.5323 27.0283H33.7349H31.9375V28.1274Z" fill="#0224E9"/>
<path id="Vector_11" d="M24.9609 37.1069V37.8828H30.0041H35.0472V37.1069V36.3311H30.0041H24.9609V37.1069Z" fill="#0224E9"/>
<path id="Vector_12" d="M16.3206 38.9983C15.1051 39.6061 14.4844 40.6406 14.4844 42.0889C14.4844 43.5372 15.1051 44.5717 16.3206 45.1794L16.993 45.5156H29.9888C42.2992 45.5156 43.0233 45.5027 43.5147 45.2699C44.8337 44.6751 45.519 43.576 45.519 42.0889C45.519 40.6018 44.8337 39.5027 43.5147 38.9078C43.0233 38.6751 42.2992 38.6621 29.9888 38.6621H16.993L16.3206 38.9983ZM42.8423 40.2656C44.2518 40.8475 44.4845 42.6579 43.2819 43.6277L42.7776 44.0285H30.0017H17.2258L16.7215 43.6277C15.5318 42.6708 15.7516 40.8604 17.1353 40.2656C17.7172 40.007 42.2345 40.007 42.8423 40.2656Z" fill="#0224E9"/>
<path id="Vector_13" d="M17.0571 41.2357C16.5787 41.7271 16.5528 42.3736 16.9925 42.8909C17.4063 43.3693 18.3244 43.4081 18.777 42.9555C19.2296 42.503 19.1908 41.5849 18.7123 41.1711C18.1951 40.7314 17.5485 40.7573 17.0571 41.2357ZM18.1692 42.0892C18.1692 42.2573 18.0658 42.3607 17.8847 42.3866C17.639 42.4254 17.5873 42.3736 17.5873 42.0892C17.5873 41.8047 17.639 41.753 17.8847 41.7917C18.0658 41.8176 18.1692 41.9211 18.1692 42.0892Z" fill="#0224E9"/>
<path id="Vector_14" d="M19.5234 40.9669C19.5234 41.0186 19.5881 41.135 19.6786 41.2255C19.7691 41.316 19.8338 41.7039 19.8338 42.0919C19.8338 42.4798 19.7691 42.8677 19.6786 42.9582C19.5881 43.0488 19.5234 43.1651 19.5234 43.2169C19.5234 43.2686 21.5019 43.3203 23.9329 43.3203H28.3295L28.2261 43.0229C28.0968 42.6479 28.0968 41.5358 28.2261 41.1479L28.3295 40.8634H23.9329C21.5019 40.8634 19.5234 40.9151 19.5234 40.9669Z" fill="#0224E9"/>
<path id="Vector_15" d="M29.4178 41.0184C28.9911 41.2641 28.8489 41.5485 28.8359 42.1046C28.8359 42.6865 29.1592 43.1391 29.6765 43.2684C30.4782 43.4753 31.1635 42.9322 31.1635 42.1046C31.1635 41.8072 31.0859 41.4839 30.9954 41.3675C30.6334 40.8891 29.9222 40.7339 29.4178 41.0184ZM30.323 42.0917C30.323 42.3761 29.9222 42.5184 29.7153 42.3115C29.4954 42.0917 29.7023 41.7425 30.0256 41.7942C30.2196 41.8201 30.323 41.9236 30.323 42.0917Z" fill="#0224E9"/>
<path id="Vector_16" d="M31.7675 41.1479C31.8192 41.316 31.871 41.7298 31.871 42.0919C31.871 42.441 31.8192 42.8677 31.7675 43.0229L31.6641 43.3203H36.0606C40.1081 43.3203 40.7805 43.2686 40.3538 42.997C40.0951 42.8548 40.0434 41.8074 40.2632 41.3677C40.3796 41.135 40.4701 40.9281 40.4701 40.9022C40.4701 40.8893 38.4917 40.8634 36.0606 40.8634H31.6641L31.7675 41.1479Z" fill="#0224E9"/>
<path id="Vector_17" d="M41.2888 41.1711C40.8103 41.5849 40.7715 42.503 41.2241 42.9555C41.6767 43.4081 42.5948 43.3693 43.0086 42.8909C43.9914 41.74 42.4397 40.1883 41.2888 41.1711ZM42.4138 42.0892C42.4138 42.3219 42.3491 42.4124 42.1681 42.4124C42.0259 42.4124 41.8707 42.3478 41.8319 42.2831C41.6897 42.0504 41.8707 41.7659 42.1552 41.7659C42.3491 41.7659 42.4138 41.8564 42.4138 42.0892Z" fill="#0224E9"/>
</g>
</g>
</svg>
