<svg width="60" height="60" viewBox="0 0 60 60" fill="none" xmlns="http://www.w3.org/2000/svg">
<g id="Group 185">
<circle id="Ellipse 9" cx="30" cy="30" r="30" fill="#0224E9" fill-opacity="0.06"/>
<g id="Black">
<path id="Vector" d="M26.6179 14.6891C26.03 14.9575 25.6082 15.3792 25.4165 15.8649C25.3142 16.1589 25.3398 16.2228 25.6082 16.3762C26.2728 16.7213 26.7202 18.0505 26.2345 18.2295C25.9661 18.3317 25.6593 18.0505 25.6593 17.7182C25.6593 17.5521 25.5187 17.2964 25.3398 17.1303C25.0714 16.8747 24.8797 16.8235 24.3301 16.8363C23.5121 16.8619 23.0264 17.0792 22.4895 17.6927C21.9399 18.3317 21.761 19.0603 21.9527 19.9038C22.1317 20.7091 22.4256 20.9647 23.2053 20.9647C23.576 20.9647 23.7677 21.0286 23.8188 21.1564C24.0616 21.7699 22.8219 21.9488 22.0294 21.412C21.5054 21.0542 21.3392 21.0925 20.7896 21.6932C20.2656 22.2428 20.125 22.6263 20.125 23.3931C20.125 24.1856 20.2656 24.5435 20.8408 25.1442L21.2242 25.5532L21.5949 25.2976C22.349 24.7607 23.5504 24.8758 23.4609 25.4765C23.4226 25.7193 23.3587 25.7577 22.8985 25.7193C21.8888 25.6426 21.352 26.5246 21.5949 27.8538C21.7994 28.9786 22.7835 29.7838 23.985 29.7838C24.3428 29.7838 24.7646 29.7199 24.9308 29.6432C25.2631 29.4898 25.5315 29.0425 25.5315 28.6463C25.5315 28.2884 25.8638 28.0583 26.1067 28.25C26.4901 28.5696 26.1961 29.6815 25.5826 30.1545C25.1864 30.474 25.1864 30.9597 25.5954 31.6499C26.5157 33.222 29.0847 33.0047 29.7366 31.2792C29.826 31.0364 29.8772 28.4545 29.8772 23.5721C29.8772 16.619 29.8644 16.1972 29.6343 15.7499C29.3403 15.162 29.0464 14.8936 28.4329 14.6379C27.8194 14.3823 27.2442 14.3951 26.6179 14.6891ZM28.6501 19.252C28.7268 19.4693 28.2156 20.0061 27.8066 20.1467C27.5765 20.2106 27.5509 20.3001 27.6149 20.888C27.6532 21.2459 27.781 21.7571 27.9088 22.0255C28.1261 22.4729 28.1261 22.524 27.9216 22.7157C27.7555 22.8819 27.6788 22.8947 27.5254 22.7668C27.2698 22.5496 26.8096 21.3098 26.8096 20.8369C26.8096 20.5173 26.7202 20.4151 26.2089 20.1722C25.7743 19.9677 25.5954 19.8016 25.5954 19.6226C25.5954 19.3542 25.7488 19.3287 26.7457 19.4948C27.1292 19.5587 27.3592 19.5076 27.7043 19.3159C28.2539 19.0091 28.5479 18.9836 28.6501 19.252ZM25.2631 23.2014C26.03 24.0833 26.1194 25.5021 25.4037 25.5021C25.1225 25.5021 25.0842 25.4509 25.1097 25.0547C25.1481 24.4156 24.9436 23.866 24.509 23.4826C24.2789 23.2781 24.1639 23.0608 24.2022 22.9458C24.3428 22.6135 24.8413 22.7285 25.2631 23.2014ZM28.7907 26.0772C29.0464 26.1667 29.1231 26.2817 29.0847 26.499C29.0464 26.7418 28.9697 26.7802 28.4712 26.793C27.6532 26.8057 27.6404 26.8057 27.2059 27.1764C26.8735 27.4448 26.7713 27.4832 26.6179 27.3553C26.3239 27.1125 26.3878 26.8824 26.8735 26.499C27.5254 25.975 28.1517 25.8344 28.7907 26.0772Z" fill="#0224E9"/>
<path id="Vector_2" d="M32.23 14.5867C31.6548 14.7528 30.9518 15.5197 30.7857 16.1716C30.5684 17.0535 30.6067 30.5889 30.824 31.228C31.6037 33.388 34.8757 33.1196 35.2975 30.8701C35.3742 30.4739 35.3358 30.3844 34.9524 30.0393C34.5178 29.6559 34.1727 28.7995 34.3133 28.4416C34.505 27.9176 35.1185 28.2371 35.1185 28.8506C35.1185 29.0168 35.2591 29.298 35.4381 29.4642C35.6937 29.7326 35.8726 29.7837 36.4861 29.7837C37.3681 29.7837 37.7515 29.6047 37.3553 29.3875C36.8057 29.0807 35.4125 27.5086 35.0802 26.8312C34.5178 25.6937 34.2878 24.3005 34.4667 23.1374C34.6456 21.9615 35.2719 20.6067 36.026 19.7631C36.5117 19.2135 37.7771 18.2677 38.2244 18.1143C38.48 18.0376 37.9688 17.4114 37.4064 17.1302C36.7546 16.7979 35.7704 16.7595 35.323 17.0407C35.1185 17.1813 34.9652 17.4241 34.914 17.7181C34.8118 18.2421 34.5434 18.4083 34.2622 18.1143C33.9554 17.8076 34.2366 16.9896 34.8118 16.5167C35.1952 16.1971 35.2336 16.1077 35.1313 15.8265C34.7607 14.8295 33.3931 14.2416 32.23 14.5867ZM32.8818 19.3158C33.2269 19.5203 33.4442 19.5714 33.8149 19.5075C34.799 19.3413 34.9268 19.3541 34.9652 19.6353C34.9907 19.8526 34.8885 19.9548 34.4284 20.1466C33.9043 20.3638 33.8532 20.4278 33.7765 20.9646C33.6743 21.7187 33.1374 22.8818 32.9074 22.8818C32.4984 22.8818 32.4217 22.5622 32.6773 21.9743C33.0224 21.1819 33.163 20.1977 32.9202 20.1977C32.6006 20.1977 31.8721 19.4947 31.9616 19.2647C32.0766 18.9707 32.3194 18.9962 32.8818 19.3158ZM33.1247 26.1282C33.9299 26.4605 34.3772 27.2274 33.8788 27.4064C33.7509 27.4575 33.5337 27.368 33.3036 27.1379C32.9841 26.8312 32.8179 26.7801 32.2044 26.7801C31.5653 26.7801 31.4759 26.7545 31.4759 26.5244C31.4759 26.2433 31.9488 25.9493 32.4089 25.9493C32.5623 25.9493 32.8946 26.026 33.1247 26.1282Z" fill="#0224E9"/>
<path id="Vector_3" d="M38.9446 18.697C35.7365 19.7962 34.2922 23.4261 35.8259 26.5319C36.8996 28.7048 39.2897 29.9318 41.6798 29.5356C43.5203 29.2288 45.1052 28.0401 45.8976 26.353C46.2427 25.6117 46.3066 25.3305 46.345 24.2185C46.4089 22.7231 46.166 21.854 45.3736 20.7164C44.0315 18.7481 41.2963 17.8918 38.9446 18.697ZM40.325 21.4961L40.8107 21.8156L41.2836 21.5089C42.4467 20.7292 44.1466 21.2021 44.6578 22.4547C44.8751 22.9532 44.8879 23.9373 44.6962 24.3208C44.5172 24.6787 40.9896 28.2446 40.8107 28.2446C40.6317 28.2446 37.1041 24.6787 36.9124 24.2952C36.6951 23.8734 36.7206 22.8637 36.9507 22.4164C37.6153 21.151 39.1619 20.7292 40.325 21.4961Z" fill="#0224E9"/>
<path id="Vector_4" d="M38.2243 22.1013C37.7003 22.4336 37.5469 22.7276 37.5469 23.4689C37.5469 24.0696 37.5469 24.0824 39.1829 25.7184L40.8061 27.3672L42.4421 25.7184L44.0654 24.0696V23.4433C44.0654 21.9223 42.5572 21.36 41.3813 22.4208C41.1001 22.6764 40.8445 22.8809 40.8061 22.8809C40.7678 22.8809 40.5121 22.6764 40.231 22.4208C39.5791 21.8329 38.8378 21.7178 38.2243 22.1013Z" fill="#0224E9"/>
<path id="Vector_5" d="M19.98 35.0475C18.8552 35.4054 17.9094 35.7249 17.8838 35.7505C17.8327 35.7761 19.7499 42.5118 19.8649 42.7163C19.8905 42.7547 20.2228 42.7163 20.6062 42.6141L21.2836 42.4351L24.2745 43.5343C26.9074 44.5057 27.3676 44.6463 28.16 44.6591L29.0547 44.6719L34.998 41.6299C38.27 39.9556 41.0819 38.4474 41.2609 38.2812C41.6443 37.885 41.6699 37.2076 41.2992 36.7219C40.7752 36.0061 40.7624 36.0061 36.1355 37.6421C33.7838 38.4602 31.8027 39.1887 31.726 39.2526C31.6365 39.3165 31.5471 39.5338 31.5087 39.7383C31.4192 40.1984 30.8696 40.8503 30.3584 41.1187C29.6426 41.4765 28.9524 41.3615 26.6262 40.4924C24.773 39.8022 24.4534 39.636 24.4151 39.3932C24.3895 39.2398 24.4534 39.0864 24.5557 39.0353C24.6451 39.0097 25.6676 39.3165 26.8052 39.7511C29.2336 40.6585 29.8344 40.7224 30.384 40.1601C31.023 39.5338 31.0102 38.2429 30.3584 37.5143C30.1922 37.3354 28.8502 36.658 27.0097 35.8272C24.1083 34.5235 23.891 34.4596 22.9836 34.4213C22.1272 34.3829 21.8205 34.4468 19.98 35.0475Z" fill="#0224E9"/>
<path id="Vector_6" d="M15.8213 34.6389C15.6423 34.7028 15.0799 34.8689 14.5815 35.0223C13.8657 35.2268 13.6484 35.3418 13.6484 35.5208C13.6484 35.802 16.4475 45.4007 16.5754 45.5285C16.6137 45.5797 17.3039 45.4391 18.0963 45.2218C19.1316 44.9278 19.5278 44.7617 19.5278 44.6211C19.5406 44.506 18.8888 42.1926 18.0963 39.4574C16.537 34.0765 16.6648 34.3577 15.8213 34.6389Z" fill="#0224E9"/>
</g>
</g>
</svg>
