<svg width="60" height="60" viewBox="0 0 60 60" fill="none" xmlns="http://www.w3.org/2000/svg">
<g id="Group 185">
<circle id="Ellipse 9" cx="30" cy="30" r="30" fill="#0224E9" fill-opacity="0.06"/>
<g id="autonomous-car 1 (traced)">
<g id="Black">
<path id="Vector" d="M27.5641 16.6844C27.5328 16.7844 27.3141 17.3406 27.0891 17.9344L26.6766 19.0094L26.3578 19.0844C25.5453 19.2781 24.1141 19.8656 23.2453 20.3656L22.9516 20.5344L21.7453 19.9969L20.5391 19.4594L19.0766 20.9156L17.6141 22.3781L18.1453 23.5781L18.6828 24.7781L18.3203 25.4781C17.8641 26.3531 17.5578 27.0906 17.3453 27.8406C17.2516 28.1594 17.1516 28.4531 17.1266 28.4906C17.0953 28.5281 16.5391 28.7656 15.8828 29.0156L14.6953 29.4719V31.5219V33.5781H17.1703H19.6453L19.6078 33.3719C19.1328 30.8281 19.6953 28.1156 21.1516 25.9031C23.4766 22.3844 27.7453 20.6281 31.8328 21.5156C36.5641 22.5406 39.9578 26.7531 39.9453 31.5781C39.9391 32.1781 39.8828 32.8406 39.7828 33.3719L39.7453 33.5781H42.2203H44.6953V31.5219V29.4719L43.5016 29.0094C42.8391 28.7531 42.2828 28.5031 42.2516 28.4531C42.2266 28.4031 42.0828 27.9781 41.9391 27.5156C41.7703 26.9781 41.5016 26.3281 41.1953 25.7219L40.7141 24.7719L41.2453 23.5719L41.7766 22.3781L40.3141 20.9219L38.8516 19.4656L37.6641 19.9906C37.0141 20.2781 36.4641 20.5156 36.4453 20.5156C36.4266 20.5156 36.1328 20.3656 35.8016 20.1781C35.0953 19.7906 34.1016 19.3844 33.2766 19.1531L32.7078 18.9906L32.2391 17.7719L31.7703 16.5469L29.7016 16.5281L27.6328 16.5156L27.5641 16.6844Z" fill="#0224E9"/>
<path id="Vector_2" d="M26.8828 28.0844C26.4266 28.1719 25.9766 28.4344 25.6391 28.8031C25.3828 29.0844 24.1328 31.0469 24.1328 31.1656C24.1328 31.1844 24.9766 31.2031 26.0078 31.2031H27.8828V29.6094V28.0156L27.5266 28.0219C27.3266 28.0281 27.0391 28.0531 26.8828 28.0844Z" fill="#0224E9"/>
<path id="Vector_3" d="M28.8203 29.6094V31.2031H31.4578H34.0953L33.6828 30.7781C33.4578 30.5469 33.0828 30.0906 32.8516 29.7656C32.3266 29.0219 31.8078 28.4844 31.4453 28.2969C31.0266 28.0844 30.5891 28.0156 29.6641 28.0156H28.8203V29.6094Z" fill="#0224E9"/>
<path id="Vector_4" d="M22.153 32.3219C21.7843 32.5844 21.4655 32.9969 21.3093 33.3844C21.203 33.6719 21.1718 33.9031 21.1468 34.6531L21.1218 35.5781H19.228H17.3343L17.203 35.3656C17.128 35.2531 16.953 35.0781 16.8155 34.9781C16.5968 34.8281 16.478 34.7969 16.1093 34.7781C15.7343 34.7594 15.6218 34.7781 15.3843 34.9094C15.228 34.9906 15.0218 35.1781 14.9155 35.3219C14.7593 35.5469 14.728 35.6594 14.7093 36.0344C14.6905 36.4156 14.7093 36.5281 14.8405 36.7656C15.0655 37.1969 15.4218 37.4156 15.9468 37.4406C16.503 37.4719 16.8718 37.3094 17.153 36.9094L17.3468 36.6406H20.0155H22.6843L22.753 36.3219C23.0593 34.9094 24.5155 33.8906 25.8843 34.1281C27.0405 34.3344 27.9655 35.2094 28.203 36.3219L28.2718 36.6406H28.578H28.8843V39.2281V41.8219L29.0343 41.9969L29.1843 42.1719L32.5343 42.1906C35.753 42.2031 35.878 42.2094 35.9155 42.3219C35.9343 42.3906 36.0593 42.5406 36.1968 42.6656C37.178 43.5531 38.7593 42.6219 38.4468 41.3344C38.178 40.1969 36.6655 39.9094 35.9968 40.8594L35.7968 41.1406H32.8718H29.9468V38.8906V36.6406H30.378H30.8093L30.878 36.3219C31.1218 35.2094 32.0655 34.3219 33.2155 34.1281C34.2468 33.9594 35.428 34.5281 35.9905 35.4594C36.3155 36.0031 36.3843 36.3969 36.3843 37.6594C36.3843 38.7594 36.3843 38.7719 36.5405 38.9219L36.6905 39.0781H39.3718H42.0468L42.2468 39.3594C42.5093 39.7281 42.8718 39.9094 43.353 39.9094C43.928 39.9094 44.3468 39.6531 44.603 39.1469C44.7718 38.8094 44.7155 38.1094 44.4843 37.7781C44.1343 37.2656 43.3593 37.0594 42.7843 37.3219C42.5155 37.4469 42.1343 37.8031 42.1343 37.9344C42.1343 37.9969 41.6218 38.0156 39.7905 38.0156H37.4468V37.3406V36.6656L37.7093 36.6031C38.128 36.5156 38.2593 36.2656 38.2593 35.5719V35.0156H37.7655C37.128 35.0156 36.9905 34.9219 36.9905 34.4844C36.9905 34.0469 37.128 33.9531 37.7655 33.9531H38.2593L38.2218 33.6844C38.1468 33.1969 37.953 32.7844 37.6843 32.5469C37.2093 32.1094 37.7655 32.1406 29.7093 32.1406H22.403L22.153 32.3219ZM30.103 33.2969C30.2968 33.4844 30.303 33.7406 30.1218 33.9344C30.003 34.0594 29.928 34.0781 29.4843 34.0781C28.8968 34.0781 28.6968 33.9594 28.6968 33.6031C28.6968 33.2719 28.9218 33.1406 29.4905 33.1406C29.8968 33.1406 29.9718 33.1594 30.103 33.2969Z" fill="#0224E9"/>
<path id="Vector_5" d="M25.0552 35.0816C24.4489 35.2378 23.9114 35.7128 23.7239 36.2816C23.4302 37.1691 23.9239 38.3003 24.7427 38.5941L24.9489 38.6691V39.5003V40.3316H23.2739H21.6052L21.3864 40.0378C20.8552 39.3316 19.9364 39.2628 19.3177 39.8878C18.1114 41.0878 19.7552 42.9253 21.1302 41.9066C21.2427 41.8191 21.3927 41.6566 21.4614 41.5441L21.5864 41.3316H23.6677H25.7552L25.8802 41.1691C26.0052 41.0128 26.0114 40.9191 26.0114 39.8378V38.6691L26.2239 38.5941C26.5364 38.4816 26.9614 38.0753 27.1302 37.7378C27.3302 37.3316 27.3739 36.7066 27.2364 36.2816C27.0927 35.8566 26.6677 35.3878 26.2677 35.2191C25.9052 35.0566 25.3864 35.0003 25.0552 35.0816ZM25.8864 36.3878C26.0927 36.5378 26.1802 36.8816 26.0739 37.1441C25.8114 37.7816 24.8239 37.5816 24.8239 36.8878C24.8239 36.6691 25.0114 36.3878 25.2177 36.2941C25.4489 36.1941 25.6614 36.2253 25.8864 36.3878Z" fill="#0224E9"/>
<path id="Vector_6" d="M33.1767 35.0781C32.7892 35.1781 32.4767 35.3719 32.2079 35.6719C31.3892 36.6031 31.7329 38.0906 32.8704 38.5969C33.2517 38.7594 33.9517 38.7594 34.3329 38.5969C34.9767 38.3094 35.3767 37.7281 35.4329 37.0094C35.4704 36.4594 35.3329 36.0469 34.9767 35.6531C34.5392 35.1656 33.7892 34.9281 33.1767 35.0781ZM33.8517 36.2906C34.0704 36.3844 34.2579 36.6594 34.2579 36.8906C34.2579 36.9656 34.2142 37.1031 34.1642 37.2031C33.8642 37.7781 32.9454 37.5406 32.9454 36.8844C32.9454 36.6656 33.1329 36.3844 33.3392 36.2969C33.5892 36.1844 33.5954 36.1844 33.8517 36.2906Z" fill="#0224E9"/>
</g>
</g>
</g>
</svg>
